<svg xmlns="http://www.w3.org/2000/svg" version="1.1" xmlns:xlink="http://www.w3.org/1999/xlink" xmlns:svgjs="http://svgjs.dev/svgjs" viewBox="0 0 2400 800" opacity="1"><defs><linearGradient x1="50%" y1="0%" x2="50%" y2="100%" id="sssurf-grad"><stop stop-color="hsla(0, 0%, 0%, 0.13)" stop-opacity="1" offset="0%"></stop><stop stop-color="hsla(0, 0%, 14%, 0.00)" stop-opacity="1" offset="100%"></stop></linearGradient></defs><g fill="url(#sssurf-grad)" transform="matrix(1,0,0,1,7.6488037109375,95.15641784667969)"><path d="M-10,10C54.58333333333333,25.208333333333332,172.91666666666666,88.625,300,83C427.08333333333337,77.375,475,-7,600,-17C725,-27,775,40.208333333333336,900,35C1025,29.791666666666664,1075,-47.833333333333336,1200,-42C1325,-36.166666666666664,1375,57.166666666666664,1500,63C1625,68.83333333333333,1675,-17.541666666666668,1800,-14C1925,-10.458333333333332,1975,79.58333333333333,2100,80C2225,80.41666666666667,2285.4166666666665,-78.66666666666667,2400,-12C2514.5833333333335,54.66666666666667,3254.1666666666665,210,2650,400C2045.8333333333335,590,156.25,795.8333333333334,-500,900" transform="matrix(1,0,0,1,0,46)" opacity="0.05"></path><path d="M-10,10C54.58333333333333,25.208333333333332,172.91666666666666,88.625,300,83C427.08333333333337,77.375,475,-7,600,-17C725,-27,775,40.208333333333336,900,35C1025,29.791666666666664,1075,-47.833333333333336,1200,-42C1325,-36.166666666666664,1375,57.166666666666664,1500,63C1625,68.83333333333333,1675,-17.541666666666668,1800,-14C1925,-10.458333333333332,1975,79.58333333333333,2100,80C2225,80.41666666666667,2285.4166666666665,-78.66666666666667,2400,-12C2514.5833333333335,54.66666666666667,3254.1666666666665,210,2650,400C2045.8333333333335,590,156.25,795.8333333333334,-500,900" transform="matrix(1,0,0,1,0,92)" opacity="0.15"></path><path d="M-10,10C54.58333333333333,25.208333333333332,172.91666666666666,88.625,300,83C427.08333333333337,77.375,475,-7,600,-17C725,-27,775,40.208333333333336,900,35C1025,29.791666666666664,1075,-47.833333333333336,1200,-42C1325,-36.166666666666664,1375,57.166666666666664,1500,63C1625,68.83333333333333,1675,-17.541666666666668,1800,-14C1925,-10.458333333333332,1975,79.58333333333333,2100,80C2225,80.41666666666667,2285.4166666666665,-78.66666666666667,2400,-12C2514.5833333333335,54.66666666666667,3254.1666666666665,210,2650,400C2045.8333333333335,590,156.25,795.8333333333334,-500,900" transform="matrix(1,0,0,1,0,138)" opacity="0.24"></path><path d="M-10,10C54.58333333333333,25.208333333333332,172.91666666666666,88.625,300,83C427.08333333333337,77.375,475,-7,600,-17C725,-27,775,40.208333333333336,900,35C1025,29.791666666666664,1075,-47.833333333333336,1200,-42C1325,-36.166666666666664,1375,57.166666666666664,1500,63C1625,68.83333333333333,1675,-17.541666666666668,1800,-14C1925,-10.458333333333332,1975,79.58333333333333,2100,80C2225,80.41666666666667,2285.4166666666665,-78.66666666666667,2400,-12C2514.5833333333335,54.66666666666667,3254.1666666666665,210,2650,400C2045.8333333333335,590,156.25,795.8333333333334,-500,900" transform="matrix(1,0,0,1,0,184)" opacity="0.34"></path><path d="M-10,10C54.58333333333333,25.208333333333332,172.91666666666666,88.625,300,83C427.08333333333337,77.375,475,-7,600,-17C725,-27,775,40.208333333333336,900,35C1025,29.791666666666664,1075,-47.833333333333336,1200,-42C1325,-36.166666666666664,1375,57.166666666666664,1500,63C1625,68.83333333333333,1675,-17.541666666666668,1800,-14C1925,-10.458333333333332,1975,79.58333333333333,2100,80C2225,80.41666666666667,2285.4166666666665,-78.66666666666667,2400,-12C2514.5833333333335,54.66666666666667,3254.1666666666665,210,2650,400C2045.8333333333335,590,156.25,795.8333333333334,-500,900" transform="matrix(1,0,0,1,0,230)" opacity="0.43"></path><path d="M-10,10C54.58333333333333,25.208333333333332,172.91666666666666,88.625,300,83C427.08333333333337,77.375,475,-7,600,-17C725,-27,775,40.208333333333336,900,35C1025,29.791666666666664,1075,-47.833333333333336,1200,-42C1325,-36.166666666666664,1375,57.166666666666664,1500,63C1625,68.83333333333333,1675,-17.541666666666668,1800,-14C1925,-10.458333333333332,1975,79.58333333333333,2100,80C2225,80.41666666666667,2285.4166666666665,-78.66666666666667,2400,-12C2514.5833333333335,54.66666666666667,3254.1666666666665,210,2650,400C2045.8333333333335,590,156.25,795.8333333333334,-500,900" transform="matrix(1,0,0,1,0,276)" opacity="0.53"></path><path d="M-10,10C54.58333333333333,25.208333333333332,172.91666666666666,88.625,300,83C427.08333333333337,77.375,475,-7,600,-17C725,-27,775,40.208333333333336,900,35C1025,29.791666666666664,1075,-47.833333333333336,1200,-42C1325,-36.166666666666664,1375,57.166666666666664,1500,63C1625,68.83333333333333,1675,-17.541666666666668,1800,-14C1925,-10.458333333333332,1975,79.58333333333333,2100,80C2225,80.41666666666667,2285.4166666666665,-78.66666666666667,2400,-12C2514.5833333333335,54.66666666666667,3254.1666666666665,210,2650,400C2045.8333333333335,590,156.25,795.8333333333334,-500,900" transform="matrix(1,0,0,1,0,322)" opacity="0.62"></path><path d="M-10,10C54.58333333333333,25.208333333333332,172.91666666666666,88.625,300,83C427.08333333333337,77.375,475,-7,600,-17C725,-27,775,40.208333333333336,900,35C1025,29.791666666666664,1075,-47.833333333333336,1200,-42C1325,-36.166666666666664,1375,57.166666666666664,1500,63C1625,68.83333333333333,1675,-17.541666666666668,1800,-14C1925,-10.458333333333332,1975,79.58333333333333,2100,80C2225,80.41666666666667,2285.4166666666665,-78.66666666666667,2400,-12C2514.5833333333335,54.66666666666667,3254.1666666666665,210,2650,400C2045.8333333333335,590,156.25,795.8333333333334,-500,900" transform="matrix(1,0,0,1,0,368)" opacity="0.72"></path><path d="M-10,10C54.58333333333333,25.208333333333332,172.91666666666666,88.625,300,83C427.08333333333337,77.375,475,-7,600,-17C725,-27,775,40.208333333333336,900,35C1025,29.791666666666664,1075,-47.833333333333336,1200,-42C1325,-36.166666666666664,1375,57.166666666666664,1500,63C1625,68.83333333333333,1675,-17.541666666666668,1800,-14C1925,-10.458333333333332,1975,79.58333333333333,2100,80C2225,80.41666666666667,2285.4166666666665,-78.66666666666667,2400,-12C2514.5833333333335,54.66666666666667,3254.1666666666665,210,2650,400C2045.8333333333335,590,156.25,795.8333333333334,-500,900" transform="matrix(1,0,0,1,0,414)" opacity="0.81"></path><path d="M-10,10C54.58333333333333,25.208333333333332,172.91666666666666,88.625,300,83C427.08333333333337,77.375,475,-7,600,-17C725,-27,775,40.208333333333336,900,35C1025,29.791666666666664,1075,-47.833333333333336,1200,-42C1325,-36.166666666666664,1375,57.166666666666664,1500,63C1625,68.83333333333333,1675,-17.541666666666668,1800,-14C1925,-10.458333333333332,1975,79.58333333333333,2100,80C2225,80.41666666666667,2285.4166666666665,-78.66666666666667,2400,-12C2514.5833333333335,54.66666666666667,3254.1666666666665,210,2650,400C2045.8333333333335,590,156.25,795.8333333333334,-500,900" transform="matrix(1,0,0,1,0,460)" opacity="0.91"></path><path d="M-10,10C54.58333333333333,25.208333333333332,172.91666666666666,88.625,300,83C427.08333333333337,77.375,475,-7,600,-17C725,-27,775,40.208333333333336,900,35C1025,29.791666666666664,1075,-47.833333333333336,1200,-42C1325,-36.166666666666664,1375,57.166666666666664,1500,63C1625,68.83333333333333,1675,-17.541666666666668,1800,-14C1925,-10.458333333333332,1975,79.58333333333333,2100,80C2225,80.41666666666667,2285.4166666666665,-78.66666666666667,2400,-12C2514.5833333333335,54.66666666666667,3254.1666666666665,210,2650,400C2045.8333333333335,590,156.25,795.8333333333334,-500,900" transform="matrix(1,0,0,1,0,506)" opacity="1.00"></path></g></svg>