<svg xmlns="http://www.w3.org/2000/svg" version="1.1" xmlns:xlink="http://www.w3.org/1999/xlink" xmlns:svgjs="http://svgjs.dev/svgjs" viewBox="0 0 800 450" opacity="1">
	<defs>
		<mask id="myMask">
			<path d="M-10,10C54.58333333333333,17.708333333333336,172.91666666666666,52.208333333333336,300,47C427.08333333333337,41.791666666666664,475,-12.916666666666666,600,-15C725,-17.083333333333332,775,42,900,37C1025,32,1075,-52.95833333333333,1200,-39C1325,-25.041666666666668,1375,99,1500,104C1625,109,1675,-9.375,1800,-15C1925,-20.625,1975,74.08333333333333,2100,77C2225,79.91666666666667,2285.4166666666665,-68.29166666666667,2400,-1C2514.5833333333335,66.29166666666667,3254.1666666666665,212.29166666666669,2650,400C2045.8333333333335,587.7083333333333,156.25,795.8333333333334,-500,900" transform="matrix(1,0,0,1,0,46)" opacity="0.05"></path>
			<path d="M-10,10C54.58333333333333,17.708333333333336,172.91666666666666,52.208333333333336,300,47C427.08333333333337,41.791666666666664,475,-12.916666666666666,600,-15C725,-17.083333333333332,775,42,900,37C1025,32,1075,-52.95833333333333,1200,-39C1325,-25.041666666666668,1375,99,1500,104C1625,109,1675,-9.375,1800,-15C1925,-20.625,1975,74.08333333333333,2100,77C2225,79.91666666666667,2285.4166666666665,-68.29166666666667,2400,-1C2514.5833333333335,66.29166666666667,3254.1666666666665,212.29166666666669,2650,400C2045.8333333333335,587.7083333333333,156.25,795.8333333333334,-500,900" transform="matrix(1,0,0,1,0,92)" opacity="0.15"></path>
			<path d="M-10,10C54.58333333333333,17.708333333333336,172.91666666666666,52.208333333333336,300,47C427.08333333333337,41.791666666666664,475,-12.916666666666666,600,-15C725,-17.083333333333332,775,42,900,37C1025,32,1075,-52.95833333333333,1200,-39C1325,-25.041666666666668,1375,99,1500,104C1625,109,1675,-9.375,1800,-15C1925,-20.625,1975,74.08333333333333,2100,77C2225,79.91666666666667,2285.4166666666665,-68.29166666666667,2400,-1C2514.5833333333335,66.29166666666667,3254.1666666666665,212.29166666666669,2650,400C2045.8333333333335,587.7083333333333,156.25,795.8333333333334,-500,900" transform="matrix(1,0,0,1,0,138)" opacity="0.24"></path>
			<path d="M-10,10C54.58333333333333,17.708333333333336,172.91666666666666,52.208333333333336,300,47C427.08333333333337,41.791666666666664,475,-12.916666666666666,600,-15C725,-17.083333333333332,775,42,900,37C1025,32,1075,-52.95833333333333,1200,-39C1325,-25.041666666666668,1375,99,1500,104C1625,109,1675,-9.375,1800,-15C1925,-20.625,1975,74.08333333333333,2100,77C2225,79.91666666666667,2285.4166666666665,-68.29166666666667,2400,-1C2514.5833333333335,66.29166666666667,3254.1666666666665,212.29166666666669,2650,400C2045.8333333333335,587.7083333333333,156.25,795.8333333333334,-500,900" transform="matrix(1,0,0,1,0,184)" opacity="0.34"></path>
			<path d="M-10,10C54.58333333333333,17.708333333333336,172.91666666666666,52.208333333333336,300,47C427.08333333333337,41.791666666666664,475,-12.916666666666666,600,-15C725,-17.083333333333332,775,42,900,37C1025,32,1075,-52.95833333333333,1200,-39C1325,-25.041666666666668,1375,99,1500,104C1625,109,1675,-9.375,1800,-15C1925,-20.625,1975,74.08333333333333,2100,77C2225,79.91666666666667,2285.4166666666665,-68.29166666666667,2400,-1C2514.5833333333335,66.29166666666667,3254.1666666666665,212.29166666666669,2650,400C2045.8333333333335,587.7083333333333,156.25,795.8333333333334,-500,900" transform="matrix(1,0,0,1,0,230)" opacity="0.43"></path>
			<path d="M-10,10C54.58333333333333,17.708333333333336,172.91666666666666,52.208333333333336,300,47C427.08333333333337,41.791666666666664,475,-12.916666666666666,600,-15C725,-17.083333333333332,775,42,900,37C1025,32,1075,-52.95833333333333,1200,-39C1325,-25.041666666666668,1375,99,1500,104C1625,109,1675,-9.375,1800,-15C1925,-20.625,1975,74.08333333333333,2100,77C2225,79.91666666666667,2285.4166666666665,-68.29166666666667,2400,-1C2514.5833333333335,66.29166666666667,3254.1666666666665,212.29166666666669,2650,400C2045.8333333333335,587.7083333333333,156.25,795.8333333333334,-500,900" transform="matrix(1,0,0,1,0,276)" opacity="0.53"></path>
			<path d="M-10,10C54.58333333333333,17.708333333333336,172.91666666666666,52.208333333333336,300,47C427.08333333333337,41.791666666666664,475,-12.916666666666666,600,-15C725,-17.083333333333332,775,42,900,37C1025,32,1075,-52.95833333333333,1200,-39C1325,-25.041666666666668,1375,99,1500,104C1625,109,1675,-9.375,1800,-15C1925,-20.625,1975,74.08333333333333,2100,77C2225,79.91666666666667,2285.4166666666665,-68.29166666666667,2400,-1C2514.5833333333335,66.29166666666667,3254.1666666666665,212.29166666666669,2650,400C2045.8333333333335,587.7083333333333,156.25,795.8333333333334,-500,900" transform="matrix(1,0,0,1,0,322)" opacity="0.62"></path>
			<path d="M-10,10C54.58333333333333,17.708333333333336,172.91666666666666,52.208333333333336,300,47C427.08333333333337,41.791666666666664,475,-12.916666666666666,600,-15C725,-17.083333333333332,775,42,900,37C1025,32,1075,-52.95833333333333,1200,-39C1325,-25.041666666666668,1375,99,1500,104C1625,109,1675,-9.375,1800,-15C1925,-20.625,1975,74.08333333333333,2100,77C2225,79.91666666666667,2285.4166666666665,-68.29166666666667,2400,-1C2514.5833333333335,66.29166666666667,3254.1666666666665,212.29166666666669,2650,400C2045.8333333333335,587.7083333333333,156.25,795.8333333333334,-500,900" transform="matrix(1,0,0,1,0,368)" opacity="0.72"></path>
			<path d="M-10,10C54.58333333333333,17.708333333333336,172.91666666666666,52.208333333333336,300,47C427.08333333333337,41.791666666666664,475,-12.916666666666666,600,-15C725,-17.083333333333332,775,42,900,37C1025,32,1075,-52.95833333333333,1200,-39C1325,-25.041666666666668,1375,99,1500,104C1625,109,1675,-9.375,1800,-15C1925,-20.625,1975,74.08333333333333,2100,77C2225,79.91666666666667,2285.4166666666665,-68.29166666666667,2400,-1C2514.5833333333335,66.29166666666667,3254.1666666666665,212.29166666666669,2650,400C2045.8333333333335,587.7083333333333,156.25,795.8333333333334,-500,900" transform="matrix(1,0,0,1,0,414)" opacity="0.81"></path>
			<path d="M-10,10C54.58333333333333,17.708333333333336,172.91666666666666,52.208333333333336,300,47C427.08333333333337,41.791666666666664,475,-12.916666666666666,600,-15C725,-17.083333333333332,775,42,900,37C1025,32,1075,-52.95833333333333,1200,-39C1325,-25.041666666666668,1375,99,1500,104C1625,109,1675,-9.375,1800,-15C1925,-20.625,1975,74.08333333333333,2100,77C2225,79.91666666666667,2285.4166666666665,-68.29166666666667,2400,-1C2514.5833333333335,66.29166666666667,3254.1666666666665,212.29166666666669,2650,400C2045.8333333333335,587.7083333333333,156.25,795.8333333333334,-500,900" transform="matrix(1,0,0,1,0,460)" opacity="0.91"></path>
			<path d="M-10,10C54.58333333333333,17.708333333333336,172.91666666666666,52.208333333333336,300,47C427.08333333333337,41.791666666666664,475,-12.916666666666666,600,-15C725,-17.083333333333332,775,42,900,37C1025,32,1075,-52.95833333333333,1200,-39C1325,-25.041666666666668,1375,99,1500,104C1625,109,1675,-9.375,1800,-15C1925,-20.625,1975,74.08333333333333,2100,77C2225,79.91666666666667,2285.4166666666665,-68.29166666666667,2400,-1C2514.5833333333335,66.29166666666667,3254.1666666666665,212.29166666666669,2650,400C2045.8333333333335,587.7083333333333,156.25,795.8333333333334,-500,900" transform="matrix(1,0,0,1,0,506)" opacity="1.00"></path>
		</mask>
	<filter id="bbblurry-filter" x="-100%" y="-100%" width="400%" height="400%" filterUnits="objectBoundingBox" primitiveUnits="userSpaceOnUse" color-interpolation-filters="sRGB">
		<feGaussianBlur stdDeviation="80" x="0%" y="0%" width="100%" height="100%" in="SourceGraphic" edgeMode="none" result="blur"></feGaussianBlur>
		</filter>
	</defs>
	<g filter="url(#bbblurry-filter)" mask="myMask">
		<ellipse rx="277.5" ry="277.5" cx="179.06959533691406" cy="227.2849578857422" fill="hsla(272, 99%, 54%, 1.00)"></ellipse>
		<ellipse rx="277.5" ry="277.5" cx="560.344765403054" cy="256.43096923828125" fill="hsla(290, 87%, 47%, 1.00)"></ellipse>
		<ellipse rx="277.5" ry="277.5" cx="411.4705810546875" cy="424.5913113680753" fill="hsla(212, 72%, 59%, 1.00)"></ellipse>
	</g>
</svg>